HIERARCHY
ROOT joint_Root
{
	OFFSET 0.0 0.0 0.0
	CHANNELS 6 Xposition Yposition Zposition Zrotation Xrotation Yrotation 
	JOINT Hips
	{
		OFFSET -0.726466 93.3139 -2.00062
		CHANNELS 6 Xposition Yposition Zposition Zrotation Xrotation Yrotation 
		JOINT Spine
		{
			OFFSET 15.7357 0.0 0.0
			CHANNELS 6 Xposition Yposition Zposition Zrotation Xrotation Yrotation 
			JOINT Chest
			{
				OFFSET 8.98455 -0.406207 0.0
				CHANNELS 6 Xposition Yposition Zposition Zrotation Xrotation Yrotation 
				JOINT Neck
				{
					OFFSET 16.3773 0.0 0.0
					CHANNELS 6 Xposition Yposition Zposition Zrotation Xrotation Yrotation 
					JOINT Head
					{
						OFFSET 6.45672 0.0 0.0
						CHANNELS 6 Xposition Yposition Zposition Zrotation Xrotation Yrotation 
						End Site
						{
							OFFSET 0.0 0.0 0.0
						}
					}
				}
				JOINT Shoulder_L
				{
					OFFSET 12.9942 -0.242716 4.98039
					CHANNELS 6 Xposition Yposition Zposition Zrotation Xrotation Yrotation 
					JOINT UpperArm_L
					{
						OFFSET 5.34809 0.0 0.0
						CHANNELS 6 Xposition Yposition Zposition Zrotation Xrotation Yrotation 
						JOINT LowerArm_L
						{
							OFFSET 24.3286 1.87007e-05 0.0
							CHANNELS 6 Xposition Yposition Zposition Zrotation Xrotation Yrotation 
							JOINT Hand_L
							{
								OFFSET 22.2916 0.0 0.0
								CHANNELS 6 Xposition Yposition Zposition Zrotation Xrotation Yrotation 
								End Site
								{
									OFFSET 0.0 0.0 0.0
								}
							}
						}
					}
				}
				JOINT Shoulder_R
				{
					OFFSET 12.9945 -0.242716 -4.98039
					CHANNELS 6 Xposition Yposition Zposition Zrotation Xrotation Yrotation 
					JOINT UpperArm_R
					{
						OFFSET -5.34813 0.0 0.0
						CHANNELS 6 Xposition Yposition Zposition Zrotation Xrotation Yrotation 
						JOINT LowerArm_R
						{
							OFFSET -24.3289 0.000322201 0.0
							CHANNELS 6 Xposition Yposition Zposition Zrotation Xrotation Yrotation 
							JOINT Hand_R
							{
								OFFSET -22.2915 -0.000108084 0.0
								CHANNELS 6 Xposition Yposition Zposition Zrotation Xrotation Yrotation 
								End Site
								{
									OFFSET 0.0 0.0 0.0
								}
							}
						}
					}
				}
			}
		}
		JOINT UpperLeg_L
		{
			OFFSET -2.19248 -6.46944 0.0
			CHANNELS 6 Xposition Yposition Zposition Zrotation Xrotation Yrotation 
			JOINT LowerLeg_L
			{
				OFFSET 39.0811 0.0 -1.23785e-05
				CHANNELS 6 Xposition Yposition Zposition Zrotation Xrotation Yrotation 
				JOINT Foot_L
				{
					OFFSET 40.9854 0.0 -1.26872e-05
					CHANNELS 6 Xposition Yposition Zposition Zrotation Xrotation Yrotation 
					JOINT Toes_L
					{
						OFFSET 11.7543 0.0 0.0
						CHANNELS 6 Xposition Yposition Zposition Zrotation Xrotation Yrotation 
						End Site
						{
							OFFSET 0.0 0.0 0.0
						}
					}
				}
			}
		}
		JOINT UpperLeg_R
		{
			OFFSET -2.19251 6.46944 0.0
			CHANNELS 6 Xposition Yposition Zposition Zrotation Xrotation Yrotation 
			JOINT LowerLeg_R
			{
				OFFSET -39.0811 -0.00228153 -0.0401928
				CHANNELS 6 Xposition Yposition Zposition Zrotation Xrotation Yrotation 
				JOINT Foot_R
				{
					OFFSET -40.9854 0.0 0.0
					CHANNELS 6 Xposition Yposition Zposition Zrotation Xrotation Yrotation 
					JOINT Toes_R
					{
						OFFSET -11.7543 0.0 0.0
						CHANNELS 6 Xposition Yposition Zposition Zrotation Xrotation Yrotation 
						End Site
						{
							OFFSET 0.0 0.0 0.0
						}
					}
				}
			}
		}
	}
}
MOTION
Frames:	4
Frame Time:	0.0333333
0.000000 0.000000 0.000000 0.000000 0.000000 -0.000000 1.887850 90.623200 -74.089000 87.872600 -0.660722 -0.377446 15.735700 0.000005 -0.000001 108.491000 82.803700 -108.637000 8.984550 -0.406207 -0.000000 5.903850 4.555300 -0.525103 16.377300 -0.000001 -0.000001 -3.279110 -1.978560 -0.604039 6.456720 -0.000001 -0.000000 -1.929710 -7.438900 0.351492 12.994200 -0.242716 4.980390 -87.404600 -6.040410 -66.695700 5.348090 -0.000007 -0.000001 -76.395200 26.199900 15.480100 24.328600 0.000019 0.000005 2.856500 -0.355118 -97.081900 22.291600 -0.000001 0.000005 5.303600 5.646120 -14.647600 12.994500 -0.242716 -4.980390 89.741900 0.819243 -72.518600 -5.348130 -0.000001 -0.000004 -62.412600 41.606500 -20.085600 -24.328900 0.000322 -0.000009 -0.324413 0.045010 -97.846000 -22.291500 -0.000108 -0.000004 14.815500 5.578400 -10.128200 -2.192480 -6.469440 -0.000000 175.744000 -5.510600 -25.544700 39.081100 -0.000007 -0.000012 0.251794 -0.469953 28.182100 40.985400 -0.000006 -0.000013 6.402150 -4.657900 -65.235700 11.754300 -0.000000 0.000003 -0.010965 -0.110724 -21.089300 -2.192510 6.469440 -0.000001 -179.901000 5.960480 -176.575000 -39.081100 -0.002282 -0.040193 0.019396 -0.008201 63.173500 -40.985400 0.000008 0.000006 3.361930 -6.150680 -35.791700 -11.754300 -0.000006 -0.000006 -0.026321 -0.200080 -24.761700
0.000000 0.000000 0.000000 0.000000 0.000000 -0.000000 2.579430 87.558800 -65.724500 90.941800 0.192707 0.624367 15.735700 0.000005 -0.000001 98.788200 82.434800 -100.097000 8.984550 -0.406207 -0.000000 7.219030 2.309600 -2.760370 16.377300 -0.000001 -0.000001 -3.578450 -2.709470 0.208316 6.456720 -0.000001 -0.000000 -2.942930 -6.327120 0.593739 12.994200 -0.242716 4.980390 -88.374100 -4.009200 -67.905700 5.348090 -0.000007 -0.000001 -74.347500 25.703100 10.080700 24.328600 0.000019 0.000005 1.749810 -0.263437 -98.562600 22.291600 -0.000001 0.000005 5.917690 5.657030 -15.727600 12.994500 -0.242716 -4.980390 89.097000 2.696090 -71.477700 -5.348130 -0.000001 -0.000004 -62.270200 42.786900 -16.809100 -24.328900 0.000322 -0.000009 -0.818818 0.021534 -91.536400 -22.291500 -0.000108 -0.000004 14.895700 5.597570 -11.189100 -2.192480 -6.469440 -0.000000 172.839000 -4.058760 -27.651900 39.081100 -0.000007 -0.000012 -0.077116 0.083604 42.689100 40.985400 -0.000006 -0.000013 5.974500 -5.243490 -65.137400 11.754300 -0.000000 0.000003 -0.006334 -0.073850 -19.582600 -2.192510 6.469440 -0.000001 176.576000 6.110610 175.695000 -39.081100 -0.002282 -0.040193 -0.076086 0.012289 81.145300 -40.985400 0.000008 0.000006 6.224550 -7.183730 -37.819000 -11.754300 -0.000006 -0.000006 -0.026031 -0.198662 -24.703000
0.000000 0.000000 0.000000 0.000000 0.000000 -0.000000 2.870310 84.829500 -57.671200 91.641500 0.831723 1.479290 15.735700 0.000005 -0.000001 90.277000 81.996600 -92.017700 8.984550 -0.406207 -0.000000 8.244070 0.069743 -3.483150 16.377300 -0.000001 -0.000001 -4.074670 -3.169370 0.738379 6.456720 -0.000001 -0.000000 -2.709590 -5.255260 1.704790 12.994200 -0.242716 4.980390 -89.294400 -1.816240 -68.765600 5.348090 -0.000007 -0.000001 -70.656200 26.398700 1.311550 24.328600 0.000019 0.000005 1.828960 -0.309266 -99.594900 22.291600 -0.000001 0.000005 5.564760 5.660500 -16.119100 12.994500 -0.242716 -4.980390 88.335300 4.801420 -70.853200 -5.348130 -0.000001 -0.000004 -63.463700 43.423600 -12.130900 -24.328900 0.000322 -0.000009 -0.909518 -0.127103 -81.899400 -22.291500 -0.000108 -0.000004 17.932400 5.638330 -13.945800 -2.192480 -6.469440 -0.000000 172.256000 -2.762530 -26.176800 39.081100 -0.000007 -0.000012 -0.548343 0.405527 53.516500 40.985400 -0.000006 -0.000013 4.586270 -7.253180 -76.392000 11.754300 -0.000000 0.000003 -0.000002 -0.000027 -16.578600 -2.192510 6.469440 -0.000001 176.396000 5.988200 165.825000 -39.081100 -0.002282 -0.040193 -0.243693 -0.025435 95.859100 -40.985400 0.000008 0.000006 9.184200 -9.089940 -38.533000 -11.754300 -0.000006 -0.000006 -0.025833 -0.197686 -24.662600
0.000000 0.000000 0.000000 0.000000 0.000000 -0.000000 3.108820 83.616300 -49.689600 91.803700 0.999611 2.440630 15.735700 0.000005 -0.000001 85.396100 81.394300 -87.246400 8.984550 -0.406207 -0.000000 9.371880 -1.399630 -3.582860 16.377300 -0.000001 -0.000001 -3.901400 -3.339470 0.575266 6.456720 -0.000001 -0.000000 -2.924610 -4.863160 2.661920 12.994200 -0.242716 4.980390 -89.663000 -0.909164 -69.658800 5.348090 -0.000007 -0.000001 -67.083400 28.260700 -10.720600 24.328600 0.000019 0.000005 1.680990 -0.263297 -98.899200 22.291600 -0.000001 0.000005 4.603360 5.663830 -16.517400 12.994500 -0.242716 -4.980390 87.976000 5.658200 -70.280000 -5.348130 -0.000001 -0.000004 -66.855600 42.457400 -4.984990 -24.328900 0.000322 -0.000009 2.459840 0.665763 -74.875200 -22.291500 -0.000108 -0.000004 21.859800 5.648610 -14.884700 -2.192480 -6.469440 -0.000000 172.825000 -6.773140 -19.851300 39.081100 -0.000007 -0.000012 -0.750275 0.508992 55.848800 40.985400 -0.000006 -0.000013 5.381270 -4.482100 -84.314000 11.754300 -0.000000 0.000003 -0.000022 -0.000278 -16.588400 -2.192510 6.469440 -0.000001 177.162000 5.028000 156.246000 -39.081100 -0.002282 -0.040193 -0.385257 -0.095289 103.766000 -40.985400 0.000008 0.000006 11.032600 -8.486240 -42.308800 -11.754300 -0.000006 -0.000006 -0.025344 -0.195273 -24.562800
